<mxfile host="app.diagrams.net" modified="2021-04-09T02:59:28.235Z" agent="5.0 (Windows NT 10.0; Win64; x64) AppleWebKit/537.36 (KHTML, like Gecko) Chrome/84.0.4147.89 Safari/537.36" etag="Jw4Zgb42v5JV3XeMlMtK" version="14.5.8" type="github">
  <diagram id="kDUsem5lVxD3hoZnfAIs" name="Page-1">
    <mxGraphModel dx="883" dy="642" grid="1" gridSize="10" guides="1" tooltips="1" connect="1" arrows="1" fold="1" page="0" pageScale="1" pageWidth="827" pageHeight="1169" background="none" math="0" shadow="0">
      <root>
        <mxCell id="0" />
        <mxCell id="1" parent="0" />
        <mxCell id="N-FXWF59U2Lxo105OljM-1" value=":业务方" style="shape=umlLifeline;perimeter=lifelinePerimeter;whiteSpace=wrap;html=1;container=1;collapsible=0;recursiveResize=0;outlineConnect=0;" vertex="1" parent="1">
          <mxGeometry x="80" y="120" width="100" height="440" as="geometry" />
        </mxCell>
        <mxCell id="N-FXWF59U2Lxo105OljM-7" value="" style="html=1;points=[];perimeter=orthogonalPerimeter;fillColor=#ffffff;gradientColor=none;" vertex="1" parent="N-FXWF59U2Lxo105OljM-1">
          <mxGeometry x="45" y="60" width="10" height="270" as="geometry" />
        </mxCell>
        <mxCell id="N-FXWF59U2Lxo105OljM-2" value=":API" style="shape=umlLifeline;perimeter=lifelinePerimeter;whiteSpace=wrap;html=1;container=1;collapsible=0;recursiveResize=0;outlineConnect=0;" vertex="1" parent="1">
          <mxGeometry x="340" y="120" width="100" height="440" as="geometry" />
        </mxCell>
        <mxCell id="N-FXWF59U2Lxo105OljM-8" value="" style="html=1;points=[];perimeter=orthogonalPerimeter;fillColor=#ffffff;gradientColor=none;" vertex="1" parent="N-FXWF59U2Lxo105OljM-2">
          <mxGeometry x="45" y="60" width="10" height="80" as="geometry" />
        </mxCell>
        <mxCell id="N-FXWF59U2Lxo105OljM-3" value=":运营等人" style="shape=umlLifeline;perimeter=lifelinePerimeter;whiteSpace=wrap;html=1;container=1;collapsible=0;recursiveResize=0;outlineConnect=0;" vertex="1" parent="1">
          <mxGeometry x="210" y="120" width="100" height="440" as="geometry" />
        </mxCell>
        <mxCell id="N-FXWF59U2Lxo105OljM-12" value="" style="html=1;points=[];perimeter=orthogonalPerimeter;fillColor=#ffffff;gradientColor=none;" vertex="1" parent="N-FXWF59U2Lxo105OljM-3">
          <mxGeometry x="45" y="170" width="10" height="80" as="geometry" />
        </mxCell>
        <mxCell id="N-FXWF59U2Lxo105OljM-14" value="1.3 运营等人员审核" style="html=1;verticalAlign=bottom;endArrow=block;" edge="1" parent="N-FXWF59U2Lxo105OljM-3">
          <mxGeometry x="0.08" width="80" relative="1" as="geometry">
            <mxPoint x="55" y="182.9999999999999" as="sourcePoint" />
            <mxPoint x="305" y="182" as="targetPoint" />
            <Array as="points">
              <mxPoint x="150" y="183" />
              <mxPoint x="230" y="182" />
            </Array>
            <mxPoint y="-1" as="offset" />
          </mxGeometry>
        </mxCell>
        <mxCell id="N-FXWF59U2Lxo105OljM-4" value=":OPWeb" style="shape=umlLifeline;perimeter=lifelinePerimeter;whiteSpace=wrap;html=1;container=1;collapsible=0;recursiveResize=0;outlineConnect=0;" vertex="1" parent="1">
          <mxGeometry x="470" y="120" width="100" height="440" as="geometry" />
        </mxCell>
        <mxCell id="N-FXWF59U2Lxo105OljM-9" value="" style="html=1;points=[];perimeter=orthogonalPerimeter;fillColor=#ffffff;gradientColor=none;" vertex="1" parent="N-FXWF59U2Lxo105OljM-4">
          <mxGeometry x="45" y="60" width="10" height="370" as="geometry" />
        </mxCell>
        <mxCell id="N-FXWF59U2Lxo105OljM-5" value=":丰源" style="shape=umlLifeline;perimeter=lifelinePerimeter;whiteSpace=wrap;html=1;container=1;collapsible=0;recursiveResize=0;outlineConnect=0;" vertex="1" parent="1">
          <mxGeometry x="600" y="120" width="100" height="440" as="geometry" />
        </mxCell>
        <mxCell id="N-FXWF59U2Lxo105OljM-17" value="" style="html=1;points=[];perimeter=orthogonalPerimeter;fillColor=#ffffff;gradientColor=none;" vertex="1" parent="N-FXWF59U2Lxo105OljM-5">
          <mxGeometry x="45" y="290" width="10" height="140" as="geometry" />
        </mxCell>
        <mxCell id="N-FXWF59U2Lxo105OljM-6" value="1.1 创建业务方浮窗" style="html=1;verticalAlign=bottom;endArrow=block;" edge="1" parent="1" source="N-FXWF59U2Lxo105OljM-7" target="N-FXWF59U2Lxo105OljM-8">
          <mxGeometry x="-0.0177" width="80" relative="1" as="geometry">
            <mxPoint x="130" y="200" as="sourcePoint" />
            <mxPoint x="380" y="200" as="targetPoint" />
            <Array as="points">
              <mxPoint x="360" y="200" />
            </Array>
            <mxPoint as="offset" />
          </mxGeometry>
        </mxCell>
        <mxCell id="N-FXWF59U2Lxo105OljM-11" value="1.2 页面显示浮窗" style="html=1;verticalAlign=bottom;endArrow=block;entryX=0.033;entryY=0.189;entryDx=0;entryDy=0;entryPerimeter=0;" edge="1" parent="1" source="N-FXWF59U2Lxo105OljM-8" target="N-FXWF59U2Lxo105OljM-9">
          <mxGeometry width="80" relative="1" as="geometry">
            <mxPoint x="400" y="230" as="sourcePoint" />
            <mxPoint x="500" y="231" as="targetPoint" />
          </mxGeometry>
        </mxCell>
        <mxCell id="N-FXWF59U2Lxo105OljM-16" value="1.4 通知业务方审核结果" style="html=1;verticalAlign=bottom;endArrow=block;entryX=0.95;entryY=0.857;entryDx=0;entryDy=0;entryPerimeter=0;" edge="1" parent="1" source="N-FXWF59U2Lxo105OljM-9" target="N-FXWF59U2Lxo105OljM-7">
          <mxGeometry width="80" relative="1" as="geometry">
            <mxPoint x="290" y="410" as="sourcePoint" />
            <mxPoint x="210" y="410" as="targetPoint" />
          </mxGeometry>
        </mxCell>
        <mxCell id="N-FXWF59U2Lxo105OljM-18" value="1.5 审核通过即上线" style="html=1;verticalAlign=bottom;endArrow=block;entryX=-0.133;entryY=0.361;entryDx=0;entryDy=0;entryPerimeter=0;" edge="1" parent="1" source="N-FXWF59U2Lxo105OljM-9" target="N-FXWF59U2Lxo105OljM-17">
          <mxGeometry x="-0.073" width="80" relative="1" as="geometry">
            <mxPoint x="530" y="460" as="sourcePoint" />
            <mxPoint x="640" y="460" as="targetPoint" />
            <Array as="points">
              <mxPoint x="560" y="460" />
            </Array>
            <mxPoint as="offset" />
          </mxGeometry>
        </mxCell>
      </root>
    </mxGraphModel>
  </diagram>
</mxfile>
